# xmcd
#
# Track frame offsets:
#	150
#	11532
#	35046
#
# Disc length: 1253 seconds
#
# Revision: 1
# Processed by: cddbd v1.5.2PL0 Copyright (c) Steve Scherf et al.
# Submitted via: audiograbber 1.83.01
#
DISCID=1c04e303
DTITLE=Gnarls Barkley - Gone Daddy Gone
DYEAR=2007
DGENRE=R&B
TTITLE0=Gone Daddy Gone
TTITLE1=Gone Daddy Gone (Later with Jools Holland Version)
TTITLE2=Videos
EXTD=
EXTT0=
EXTT1=
EXTT2=
PLAYORDER=
